<?xml version="1.0" encoding="UTF-8"?>
<svg version="1.1" xmlns="http://www.w3.org/2000/svg" width="1280" height="720">
<path d="M0 0 C422.4 0 844.8 0 1280 0 C1280 237.6 1280 475.2 1280 720 C857.6 720 435.2 720 0 720 C0 482.4 0 244.8 0 0 Z " fill="#FEFEFE" transform="translate(0,0)"/>
<path d="M0 0 C14.27793569 12.00494129 23.0056498 29.95926516 24.89355469 48.37207031 C26.88558367 74.40719531 24.11061839 101.1767795 6.69140625 121.7734375 C-6.22673567 135.60077416 -23.05896072 142.79902549 -41.89697266 143.47583008 C-59.44716119 143.63289649 -75.7629838 139.01038988 -88.91015625 126.9375 C-90.89015625 124.4625 -90.89015625 124.4625 -92.91015625 121.9375 C-93.24015625 150.3175 -93.57015625 178.6975 -93.91015625 207.9375 C-106.12015625 207.9375 -118.33015625 207.9375 -130.91015625 207.9375 C-130.91015625 136.3275 -130.91015625 64.7175 -130.91015625 -9.0625 C-119.69015625 -9.0625 -108.47015625 -9.0625 -96.91015625 -9.0625 C-95.92015625 -2.4625 -94.93015625 4.1375 -93.91015625 10.9375 C-92.94078125 9.596875 -91.97140625 8.25625 -90.97265625 6.875 C-68.77509852 -21.44908366 -27.18872248 -19.26932278 0 0 Z " fill="#4D4D4D" transform="translate(834.91015625,263.0625)"/>
<path d="M0 0 C18.81 0 37.62 0 57 0 C59.083125 3.733125 61.16625 7.46625 63.3125 11.3125 C68.95220846 21.39601119 74.67945932 31.42330702 80.49267578 41.40771484 C89.04739453 56.12005752 97.53305882 70.87082313 105.87646484 85.70410156 C106.3761377 86.59194336 106.87581055 87.47978516 107.390625 88.39453125 C107.82407227 89.16643799 108.25751953 89.93834473 108.70410156 90.73364258 C109.99783797 93.08909339 109.99783797 93.08909339 111.78808594 95.4753418 C113 98 113 98 112.39648438 100.43652344 C111.93564453 101.2824707 111.47480469 102.12841797 111 103 C110.49275391 103.94649414 109.98550781 104.89298828 109.46289062 105.86816406 C108.56860352 107.42615723 108.56860352 107.42615723 107.65625 109.015625 C107.16336487 109.8767691 107.16336487 109.8767691 106.66052246 110.75531006 C105.61003143 112.58862309 104.55499388 114.41927533 103.5 116.25 C102.48138651 118.02769519 101.46364753 119.80583615 100.44985962 121.58628845 C99.7477373 122.80021455 99.03038224 124.00544355 98.29891968 125.20191956 C96.23087593 128.62194233 94.6189478 131.9043203 93.27978516 135.67553711 C91.34632918 140.59532583 89.43389893 144.89683165 85 148 C76.1392528 150.64525922 66.55106909 149.68279363 57.42675781 149.16729736 C53.99591755 148.99206079 50.56294882 148.91548292 47.12890625 148.83007812 C40.41372439 148.64330546 33.70803502 148.35948746 27 148 C23.02916504 141.12610808 19.06045297 134.25101627 15.0978241 127.37239075 C12.84783626 123.46784633 10.59123679 119.56719016 8.33203125 115.66796875 C7.24197871 113.77876629 6.1521235 111.88944995 5.0625 110 C4.54913086 109.11739502 4.03576172 108.23479004 3.50683594 107.32543945 C3.04180664 106.51679443 2.57677734 105.70814941 2.09765625 104.875 C1.48676147 103.81925781 1.48676147 103.81925781 0.86352539 102.7421875 C0 101 0 101 0 99 C18.15 99 36.3 99 55 99 C51.19426678 91.38853355 47.38132562 83.96583247 43.125 76.625 C42.60905273 75.72740967 42.09310547 74.82981934 41.56152344 73.9050293 C39.20040527 69.79878474 36.82650522 65.70009727 34.4453125 61.60546875 C34.07003418 60.95690918 33.69475586 60.30834961 33.30810547 59.64013672 C32.31862566 57.93103522 31.32358045 56.22515919 30.328125 54.51953125 C29 52 29 52 29 50 C28.34 50 27.68 50 27 50 C26.65001953 50.98419922 26.65001953 50.98419922 26.29296875 51.98828125 C24.60586842 55.91805271 22.4807321 59.50627718 20.3125 63.1875 C19.31218785 64.90085946 18.31220567 66.6144116 17.3125 68.328125 C16.77625 69.24529297 16.24 70.16246094 15.6875 71.10742188 C12.71211348 76.20759252 9.76265836 81.32270783 6.8125 86.4375 C6.18480713 87.52514648 5.55711426 88.61279297 4.91040039 89.73339844 C0.51240369 97.36021293 -3.86296848 104.99967267 -8.22714233 112.64587402 C-9.89763383 115.57188812 -11.57008482 118.49678135 -13.2421875 121.421875 C-15.62811777 125.59573365 -18.00772731 129.77308796 -20.3828125 133.953125 C-21.3799279 135.69807695 -22.37730427 137.4428798 -23.375 139.1875 C-23.82133789 139.97761475 -24.26767578 140.76772949 -24.72753906 141.58178711 C-27.7724116 146.8862058 -27.7724116 146.8862058 -30 148 C-30.36649658 147.34217529 -30.73299316 146.68435059 -31.1105957 146.0065918 C-37.42737062 134.67659728 -43.75011597 123.35126476 -50.25 112.125 C-50.70286377 111.34213623 -51.15572754 110.55927246 -51.62231445 109.75268555 C-53.3517272 106.77689718 -55.08958931 103.86561604 -57 101 C-56.68903217 96.56233294 -55.37738404 93.37634023 -53.19140625 89.54296875 C-52.61366455 88.52033936 -52.03592285 87.49770996 -51.44067383 86.4440918 C-50.82087646 85.3694165 -50.2010791 84.29474121 -49.5625 83.1875 C-48.93303467 82.08124268 -48.30356934 80.97498535 -47.6550293 79.83520508 C-45.7809468 76.55037941 -43.89314921 73.27386705 -42 70 C-41.47470703 69.08863281 -40.94941406 68.17726563 -40.40820312 67.23828125 C-39.04886125 64.8845215 -37.68351614 62.53447593 -36.3125 60.1875 C-35.91554932 59.50776123 -35.51859863 58.82802246 -35.10961914 58.12768555 C-34.09251347 56.40682159 -33.04776931 54.70236781 -32 53 C-31.57704147 52.28273743 -31.15408295 51.56547485 -30.7183075 50.82647705 C-29 49 -29 49 -26.51325989 48.51898193 C-25.52508774 48.52786438 -24.53691559 48.53674683 -23.51879883 48.54589844 C-22.39786331 48.54620056 -21.2769278 48.54650269 -20.12202454 48.54681396 C-18.91257675 48.56745911 -17.70312897 48.58810425 -16.45703125 48.609375 C-15.21829758 48.61503479 -13.9795639 48.62069458 -12.70329285 48.62652588 C-9.41335722 48.64513776 -6.12420519 48.68106332 -2.83453369 48.7253418 C0.52362479 48.76629371 3.88189805 48.7845366 7.24023438 48.8046875 C13.82713013 48.84883612 20.41350096 48.91581041 27 49 C19.56484053 35.78925898 12.09075275 22.61371018 4.34179688 9.58398438 C3.76880859 8.61138672 3.19582031 7.63878906 2.60546875 6.63671875 C2.10168701 5.78811279 1.59790527 4.93950684 1.07885742 4.06518555 C0 2 0 2 0 0 Z " fill="#FF7B82" transform="translate(280,255)"/>
<path d="M0 0 C13.12898729 11.29290335 19.54786752 26.87526125 21.09765625 43.921875 C21.22738303 47.25484403 21.22454985 50.58282633 21.21118164 53.91796875 C21.21132767 54.88474045 21.21147369 55.85151215 21.21162415 56.84757996 C21.21093183 60.01820175 21.20317152 63.18876356 21.1953125 66.359375 C21.1934459 68.56754525 21.19202314 70.77571591 21.19102478 72.98388672 C21.18721868 78.7772131 21.17740476 84.57051415 21.1663208 90.36383057 C21.15606559 96.28291481 21.15151837 102.20200317 21.14648438 108.12109375 C21.1357807 119.72136705 21.11819943 131.32161495 21.09765625 142.921875 C8.88765625 142.921875 -3.32234375 142.921875 -15.90234375 142.921875 C-15.91692627 140.18729004 -15.93150879 137.45270508 -15.9465332 134.63525391 C-15.99699234 125.57474544 -16.06360728 116.5144068 -16.13805866 107.45406532 C-16.18268286 101.96369536 -16.22195648 96.47339824 -16.2487793 90.98291016 C-16.2748916 85.67891861 -16.31534992 80.37520858 -16.36553001 75.07139206 C-16.38214522 73.05336397 -16.39369264 71.03528724 -16.39995766 69.01720047 C-16.4096571 66.17865104 -16.43778551 63.34081324 -16.4699707 60.50244141 C-16.46853561 59.67812622 -16.46710052 58.85381104 -16.46562195 58.0045166 C-16.63700267 47.235613 -20.05947892 37.76473983 -27.71484375 30.109375 C-36.8496673 23.84037845 -47.19340565 23.52115694 -57.90234375 24.921875 C-67.21231799 27.63728415 -73.39080368 33.008766 -78.27030945 41.22540283 C-83.13330989 51.25686025 -82.63420093 61.32627333 -82.609375 72.21875 C-82.6225105 74.26427673 -82.63782036 76.30979055 -82.65519714 78.35528564 C-82.69484315 83.70144575 -82.7052244 89.04726495 -82.70922852 94.39355469 C-82.71859857 99.86403613 -82.75603618 105.33432048 -82.79101562 110.8046875 C-82.85538387 121.51045436 -82.88619554 132.21592672 -82.90234375 142.921875 C-95.11234375 142.921875 -107.32234375 142.921875 -119.90234375 142.921875 C-119.90234375 94.081875 -119.90234375 45.241875 -119.90234375 -5.078125 C-108.68234375 -5.078125 -97.46234375 -5.078125 -85.90234375 -5.078125 C-84.91234375 0.531875 -83.92234375 6.141875 -82.90234375 11.921875 C-81.21109375 10.08625 -79.51984375 8.250625 -77.77734375 6.359375 C-58.21501595 -13.73738334 -22.8556238 -16.36499577 0 0 Z " fill="#4D4D4D" transform="translate(1009.90234375,259.078125)"/>
<path d="M0 0 C12.54 0 25.08 0 38 0 C42.49995667 8.99991333 42.49995667 8.99991333 43.76416016 12.42700195 C44.05227066 13.20111923 44.34038116 13.97523651 44.63722229 14.77281189 C44.93482956 15.58641678 45.23243683 16.40002167 45.5390625 17.23828125 C46.02287636 18.54370628 46.02287636 18.54370628 46.51646423 19.87550354 C47.55702248 22.6862395 48.59115854 25.49928734 49.625 28.3125 C50.34458592 30.26137259 51.06455913 32.21010222 51.78491211 34.15869141 C53.20905789 38.01243965 54.63091403 41.86702131 56.05126953 45.72216797 C57.69714337 50.1855157 59.35693457 54.64344088 61.02734375 59.09765625 C64.83749547 69.27058414 68.58017 79.45952937 72.0625 89.75 C72.3500415 90.59030762 72.63758301 91.43061523 72.93383789 92.29638672 C74.45470888 96.87641605 75.48017234 101.19961621 76 106 C76.66 106 77.32 106 78 106 C78.13172607 105.15646973 78.13172607 105.15646973 78.26611328 104.29589844 C79.6192568 96.61423046 82.14228314 89.53835757 84.875 82.25 C85.36692062 80.92477527 85.85869811 79.59949741 86.3503418 78.27416992 C90.88018654 66.11922775 95.68386818 54.07576327 100.55543518 42.05412292 C102.66922266 36.83316517 104.75543843 31.60148844 106.8359375 26.3671875 C107.48327191 24.74046055 108.13065117 23.11375145 108.77807617 21.48706055 C109.72915379 19.09734916 110.67960697 16.70740124 111.62783813 14.31655884 C112.50342268 12.10982451 113.38220532 9.90438954 114.26171875 7.69921875 C114.52467743 7.03409271 114.78763611 6.36896667 115.05856323 5.6836853 C116.88609502 1.11390498 116.88609502 1.11390498 118 0 C120.73894085 -0.08858646 123.4525327 -0.11523479 126.19140625 -0.09765625 C127.01124496 -0.0962413 127.83108368 -0.09482635 128.67576599 -0.09336853 C131.30471382 -0.08775289 133.93357773 -0.07519779 136.5625 -0.0625 C138.34049357 -0.05748701 140.11848846 -0.05292376 141.89648438 -0.04882812 C146.26435545 -0.03777839 150.63216348 -0.02050331 155 0 C152.7057401 8.77249035 149.18862508 16.91440573 145.59677124 25.21411133 C143.67254749 29.66318605 141.76830764 34.120804 139.86328125 38.578125 C139.26372368 39.97985962 139.26372368 39.97985962 138.65205383 41.40991211 C134.24333223 51.73731311 129.96080622 62.11600508 125.6875 72.5 C124.1097302 76.33087553 122.53150475 80.16156324 120.953125 83.9921875 C120.55616928 84.95573151 120.15921356 85.91927551 119.75022888 86.91201782 C115.28314468 97.74925399 110.78679272 108.57429029 106.28164673 119.39575195 C105.39093013 121.53565586 104.5007662 123.67578989 103.61117554 125.81616211 C102.37633873 128.7868976 101.13962721 131.75684533 99.90234375 134.7265625 C99.53554504 135.60974152 99.16874634 136.49292053 98.79083252 137.40286255 C98.45114441 138.21689545 98.1114563 139.03092834 97.76147461 139.86962891 C97.46792587 140.57471588 97.17437714 141.27980286 96.87193298 142.0062561 C95.98423096 144.03605716 94.99076811 146.01846378 94 148 C82.12 148 70.24 148 58 148 C54.84162347 141.05157163 51.80681087 134.19571998 49.06640625 127.09375 C48.71236725 126.18431137 48.35832825 125.27487274 47.99356079 124.33787537 C47.23876965 122.39850461 46.48527721 120.45862798 45.73300171 118.51828003 C43.72237004 113.33362342 41.70078956 108.15323833 39.6796875 102.97265625 C39.27588364 101.93710098 38.87207977 100.90154572 38.45603943 99.83460999 C35.0793808 91.18348777 31.64872587 82.55506929 28.1875 73.9375 C27.08419005 71.1863764 25.98152519 68.43499436 24.87890625 65.68359375 C24.58980881 64.96223236 24.30071136 64.24087097 24.00285339 63.49765015 C19.68501658 52.721129 15.37465947 41.94166337 11.08145142 31.15530396 C10.11391343 28.72704209 9.14450485 26.29952469 8.17318726 23.87277222 C6.8111729 20.46915743 5.45563095 17.06303226 4.1015625 13.65625 C3.68668076 12.62359512 3.27179901 11.59094025 2.84434509 10.5269928 C2.46854813 9.57771408 2.09275116 8.62843536 1.70556641 7.65039062 C1.37473053 6.82108032 1.04389465 5.99177002 0.70303345 5.1373291 C0 3 0 3 0 0 Z " fill="#4D4D4D" transform="translate(527,254)"/>
<path d="M0 0 C9.20671886 6.25987134 14.53002873 15.28491651 17.3984375 25.87890625 C19.9304328 43.22068539 17.55203028 58.43724249 7.625 72.90234375 C-1.35827201 81.88561576 -11.97505873 84.7442934 -24.375 85.08984375 C-35.66628745 84.98952629 -45.1662507 80.65635896 -53.1875 72.71484375 C-64.03273175 59.46764792 -65.36867268 45.25447966 -64.1875 28.71484375 C-61.97116898 16.62000877 -55.11946326 6.82013629 -45.1875 -0.28515625 C-32.00548708 -8.62768977 -13.20220218 -7.75629378 0 0 Z " fill="#FEFEFE" transform="translate(805.1875,288.28515625)"/>
<path d="M0 0 C9.9 0 19.8 0 30 0 C41.33333333 29.04166667 52.66666667 58.08333333 64 87.125 C64.32994965 87.97049408 64.65989929 88.81598816 64.99984741 89.68710327 C65.66702787 91.39675702 66.33420316 93.10641278 67.00137329 94.81607056 C68.66013667 99.06671809 70.3189877 103.31733138 71.97802734 107.56787109 C75.07222493 115.49562615 78.1655726 123.42370962 81.25592041 131.35296631 C82.69843835 135.05404417 84.14143845 138.75493395 85.58447266 142.45581055 C86.26505072 144.20164818 86.94539868 145.94757554 87.62548828 147.69360352 C88.57524209 150.13190919 89.52582368 152.56989076 90.4765625 155.0078125 C90.77419495 155.77244812 91.07182739 156.53708374 91.378479 157.32489014 C92.82355818 161.02811127 94.28744451 164.72186763 95.79199219 168.40136719 C96.07368256 169.09293915 96.35537292 169.78451111 96.64559937 170.49703979 C97.40814245 172.36299701 98.17721891 174.22628056 98.94677734 176.08935547 C100 179 100 179 100 182 C90.43 182 80.86 182 71 182 C66.50049976 173.00099953 66.50049976 173.00099953 65.03979492 169.19677734 C64.70752899 168.33752655 64.37526306 167.47827576 64.03292847 166.59298706 C63.68561676 165.68316071 63.33830505 164.77333435 62.98046875 163.8359375 C62.60528107 162.86318878 62.23009338 161.89044006 61.84353638 160.88821411 C61.03957229 158.80283093 60.23733415 156.71678166 59.43667603 154.63012695 C57.30715336 149.08097577 55.16452288 143.53688521 53.0234375 137.9921875 C52.59402359 136.87918274 52.16460968 135.76617798 51.72218323 134.6194458 C47.96699221 124.89379566 44.15329729 115.19210429 40.3125 105.5 C34.87759708 91.77688381 29.49065311 78.03583781 24.13980103 64.27972412 C20.20181952 54.15669537 16.23211887 44.04733092 12.2109375 33.95703125 C11.41649894 31.96053257 10.62206529 29.96403194 9.82763672 27.9675293 C8.30108755 24.1320596 6.76779302 20.29937511 5.23095703 16.46801758 C4.53915126 14.73137685 3.84757013 12.99464661 3.15625 11.2578125 C2.83522308 10.46296951 2.51419617 9.66812653 2.18344116 8.84919739 C0 3.3408171 0 3.3408171 0 0 Z " fill="#FE7A81" transform="translate(411,228)"/>
<path d="M0 0 C7.25707181 -0.39595263 14.51178316 -0.69689061 21.77750969 -0.88080692 C25.15310634 -0.96915509 28.5212673 -1.08854711 31.89257812 -1.2824707 C53.54931065 -2.43808291 53.54931065 -2.43808291 59.10144043 1.48477173 C62.56038385 5.3685728 64.3781084 9.85685297 66.1182251 14.70504761 C67.4839227 18.25948194 69.43476403 21.39981091 71.40625 24.64453125 C72.09763107 25.84477793 72.78518666 27.04723696 73.46875 28.25195312 C74.85230021 30.67750628 76.23779506 33.10192574 77.625 35.52539062 C78.30222194 36.71085833 78.97931076 37.89640209 79.65625 39.08203125 C80.25244141 40.12593018 80.84863281 41.1698291 81.46289062 42.24536133 C82.70134349 44.46478059 83.86337452 46.72674905 85 49 C65.86 49 46.72 49 27 49 C23.02981776 42.12570298 19.06045825 35.25102544 15.0978241 28.37239075 C12.84783626 24.46784633 10.59123679 20.56719016 8.33203125 16.66796875 C7.24197871 14.77876629 6.1521235 12.88944995 5.0625 11 C4.54913086 10.11739502 4.03576172 9.23479004 3.50683594 8.32543945 C2.80929199 7.11247192 2.80929199 7.11247192 2.09765625 5.875 C1.48676147 4.81925781 1.48676147 4.81925781 0.86352539 3.7421875 C0 2 0 2 0 0 Z " fill="#FF8B91" transform="translate(280,354)"/>
</svg>
